HIERARCHY
ROOT hip
{
	OFFSET 0.000000 0.000000 0.000000 
	CHANNELS 6 Xposition Yposition Zposition Xrotation Zrotation Yrotation
	JOINT abdomen
	{
		OFFSET 0.000000 3.402643 0.000000 
		CHANNELS 3 Xrotation Zrotation Yrotation
		JOINT chest
		{
			OFFSET 0.000000 8.438565 -0.680529 
			CHANNELS 3 Xrotation Zrotation Yrotation
			JOINT neck
			{
				OFFSET 0.000000 10.207942 -0.272212 
				CHANNELS 3 Xrotation Zrotation Yrotation
				JOINT head
				{
					OFFSET 0.000000 3.130431 0.000000 
					CHANNELS 3 Xrotation Zrotation Yrotation
					End Site
					{
						OFFSET 0.000000 3.130435 0.000000 
					}
				}
			}
			JOINT lCollar
			{
				OFFSET 3.470700 6.669187 -0.816635 
				CHANNELS 3 Yrotation Zrotation Xrotation
				JOINT lShldr
				{
					OFFSET 3.198488 0.000000 0.000000 
					CHANNELS 3 Zrotation Yrotation Xrotation
					JOINT lForeArm
					{
						OFFSET 10.139888 0.000000 0.000000 
						CHANNELS 3 Yrotation Zrotation Xrotation
						JOINT lHand
						{
							OFFSET 8.370511 0.000000 0.000000 
							CHANNELS 3 Zrotation Yrotation Xrotation
							End Site
							{
								OFFSET 4.083176 0.000000 0.000000 
							}
						}
					}
				}
			}
			JOINT rCollar
			{
				OFFSET -3.470700 6.669187 -0.816635 
				CHANNELS 3 Yrotation Zrotation Xrotation
				JOINT rShldr
				{
					OFFSET -3.198488 0.000000 0.000000 
					CHANNELS 3 Zrotation Yrotation Xrotation
					JOINT rForeArm
					{
						OFFSET -10.139888 0.000000 0.000000 
						CHANNELS 3 Yrotation Zrotation Xrotation
						JOINT rHand
						{
							OFFSET -8.370511 0.000000 0.000000 
							CHANNELS 3 Zrotation Yrotation Xrotation
							End Site
							{
								OFFSET -4.083176 0.000000 0.000000 
							}
						}
					}
				}
			}
		}
	}
	JOINT lThigh
	{
		OFFSET 5.308129 -1.633274 1.361059 
		CHANNELS 3 Xrotation Zrotation Yrotation
		JOINT lShin
		{
			OFFSET -2.041588 -20.007561 0.000000 
			CHANNELS 3 Xrotation Zrotation Yrotation
			JOINT lFoot
			{
				OFFSET 0.000000 -19.190928 -1.224953 
				CHANNELS 3 Xrotation Yrotation Zrotation
				End Site
				{
					OFFSET 0.000000 -2.449906 4.627600 
				}
			}
		}
	}
	JOINT rThigh
	{
		OFFSET -5.308129 -1.633274 1.361059 
		CHANNELS 3 Xrotation Zrotation Yrotation
		JOINT rShin
		{
			OFFSET 2.041588 -20.007561 0.000000 
			CHANNELS 3 Xrotation Zrotation Yrotation
			JOINT rFoot
			{
				OFFSET 0.000000 -19.190928 -1.224953 
				CHANNELS 3 Xrotation Yrotation Zrotation
				End Site
				{
					OFFSET 0.000000 -2.449906 4.627600 
				}
			}
		}
	}
}
MOTION
Frames: 16
Frame Time: 0.033333
0.047361 46.440323 -0.226103 -9.034060 -1.316093 -3.360282 0.000000 0.000000 0.000000 8.152882 0.601757 6.348022 22.388386 4.277316 0.205964 -23.643459 -6.498169 3.970765 -14.413936 8.696530 24.993235 -86.414665 16.667683 -11.314750 -80.787170 -5.480352 55.496372 -3.868367 -10.980627 -59.446510 -1.758353 -6.609407 24.483803 53.624397 17.680279 68.630775 47.255310 -68.268387 10.504474 13.434510 5.656599 -81.424202 -21.841688 9.244472 18.601200 113.873596 13.912838 0.093886 -10.514694 12.664809 18.145805 4.793366 3.280358 2.011920 53.802090 0.965477 4.218512 -24.524054 -9.793308 1.112951 
0.355650 46.815483 -0.503555 -6.958003 -0.361031 -2.324296 0.000000 0.000000 0.000000 6.947209 0.727820 6.426377 20.284628 3.642561 0.176667 -24.076061 -5.132482 2.333241 -13.652813 7.801664 24.997581 -86.190605 26.714024 -12.887879 -78.494682 -12.003566 49.020088 -1.310413 -5.774796 -60.190365 -2.552244 -8.863317 24.232517 51.990162 25.064756 66.235519 65.108696 -75.769356 19.543821 -2.858745 5.191328 -84.302109 -29.565830 6.716144 16.670218 109.105927 12.974571 -0.236096 -8.717246 8.894897 10.322916 8.870270 0.576144 1.126405 50.202698 2.459754 4.206583 -25.045662 -7.186736 2.886995 
0.666050 47.983273 -0.355191 -6.398988 0.761055 -2.392756 0.000000 0.000000 0.000000 6.930957 0.756933 6.426380 18.095905 1.181641 0.009965 -22.262079 -1.551759 2.031827 -8.203691 5.437684 24.992983 -81.965347 36.013866 -18.330338 -77.181808 -25.519146 40.493179 2.631743 -7.953578 -61.000507 -2.641477 -11.902909 24.020796 52.477879 30.503895 65.102432 -59.776947 -98.021332 -104.072594 -4.833627 7.754417 -85.083496 -29.998491 4.189147 15.843237 97.333435 10.788443 -0.841518 -13.676934 11.081059 17.719614 18.032648 -1.181575 0.520803 39.589134 1.679520 2.963934 -20.871906 -4.695611 6.287622 
0.792720 49.883129 0.410285 -10.749231 0.682037 -3.867378 0.000000 0.000000 0.000000 10.430517 1.717355 6.516880 18.586811 -2.636688 -0.274046 -20.004469 2.154726 3.254425 -2.125309 0.922631 24.778894 -76.432404 43.742279 -27.181881 -75.780052 -37.846790 38.834045 2.274889 -12.481974 -60.923019 -0.274894 -13.593443 24.523947 52.481560 31.433405 64.873581 -13.934783 -103.133736 -56.172955 2.897647 10.116420 -83.325974 -18.513512 2.684803 16.927259 78.504150 9.650476 -0.947776 -16.517906 6.988489 16.294373 33.483063 -2.851308 0.048388 25.635147 2.212226 1.750992 -12.199282 -1.109081 8.026068 
0.676225 51.576656 1.054441 -12.596320 -2.181234 -6.929193 0.000000 0.000000 0.000000 11.193753 5.018416 7.245366 20.361841 -6.816061 -0.581371 -18.161282 4.657744 5.311124 2.318375 -3.320812 24.661554 -74.014496 49.575329 -35.661850 -75.270958 -44.609882 39.872437 1.933304 -16.272739 -60.922821 3.639950 -14.454167 24.993601 53.471710 29.364237 65.814667 -14.676924 -107.054512 -57.058247 7.710867 14.730183 -82.190193 -7.495174 5.100564 18.543938 57.857311 7.056855 -0.933395 -14.951170 -0.477640 10.718720 41.498028 -1.767313 0.476847 18.984745 0.758340 0.869356 -0.475873 4.189680 13.343106 
0.676251 51.576649 1.054428 -12.596320 -2.181234 -6.929193 0.000000 0.000000 0.000000 11.193753 5.018416 7.245366 20.361841 -6.816061 -0.581371 -18.161282 4.657744 5.311124 2.327244 -3.316747 24.661442 -74.014496 49.575329 -35.661850 -75.270958 -44.609882 39.872437 1.933304 -16.272739 -60.922821 3.639950 -14.454167 24.993601 53.471710 29.364237 65.814667 -14.676924 -107.054512 -57.058247 7.710867 14.730183 -82.190193 -7.495174 5.100563 18.543940 57.857311 7.056856 -0.933395 -14.951170 -0.477640 10.718720 41.498028 -1.767313 0.476847 18.984745 0.758340 0.869356 -0.466681 4.190692 13.342737 
1.118074 51.363674 0.842697 -8.118472 -0.657316 -8.174407 0.000000 0.000000 0.000000 6.344996 2.579124 6.852798 20.387014 -4.716663 -0.431444 -17.319740 3.425455 4.803840 3.949404 4.963217 24.180508 -79.912842 42.878006 -23.630587 -75.486107 -35.924770 33.527367 2.234801 -18.659454 -61.337498 4.560771 -15.702042 24.996374 59.065975 18.128077 70.817162 -40.825363 -107.576836 -74.764877 4.613746 5.877634 -82.672417 -2.268806 -0.423602 16.968851 34.686623 6.787409 0.156915 -12.522353 -0.661481 6.854300 25.881445 -4.403543 -0.493410 48.383648 1.102862 3.703549 9.545234 -15.861673 8.757071 
1.293031 50.492424 0.490160 -7.225167 0.348348 -7.754000 0.000000 0.000000 0.000000 5.809162 0.679273 6.445784 21.399424 -2.568328 -0.283794 -18.358297 3.152978 4.802686 -1.086237 6.661541 24.843351 -83.401123 39.049397 -18.513386 -79.401970 -27.660814 26.256899 -0.065604 -17.056383 -60.557674 4.459809 -14.610805 24.995527 61.842239 10.251318 73.804832 105.778336 -73.244865 68.517563 13.129384 6.978964 -81.162849 -1.971206 -2.255289 16.429365 35.657940 6.428648 -0.016442 -12.698773 1.358417 5.470308 14.780477 -5.702037 -0.813282 67.539413 1.239577 5.528577 11.199887 -21.321495 21.604034 
1.451531 49.094070 -0.100182 -5.347751 0.203488 -7.138695 0.000000 0.000000 0.000000 5.033602 0.038824 6.328130 21.778509 -0.488280 -0.136797 -20.239279 2.170233 4.759467 -5.993408 8.028670 24.989513 -84.533630 31.769522 -15.095353 -82.968636 -19.785135 25.540981 -0.601154 -17.167902 -60.525612 3.392823 -12.689481 24.997459 62.801102 4.450270 75.611313 90.000000 -74.697266 73.612938 11.503345 6.340788 -81.341972 -3.821951 -2.480489 16.307045 40.711250 6.572999 -0.253403 -9.823365 3.904639 8.617243 -0.000729 -6.036553 -0.634363 87.188850 1.249232 7.133037 10.921649 -25.297066 23.484152 
1.489205 47.491749 -0.475261 -6.138937 -0.416631 -7.177969 0.000000 0.000000 0.000000 7.085490 -0.310683 6.181709 21.493942 1.171875 -0.009764 -22.229622 1.147609 5.196419 -8.917759 8.780502 24.990183 -82.273598 22.790636 -14.471323 -86.939392 -16.156857 24.234943 0.562260 -16.456329 -61.206303 2.734368 -11.969369 24.997240 65.777107 0.242882 78.020538 52.757141 -70.138916 48.673107 6.623411 5.360313 -81.694756 -5.181833 -1.534035 16.551954 51.956947 7.468066 -0.597138 -15.097199 7.658401 18.088099 -8.957738 -5.025235 -0.113356 101.087502 0.234978 7.803898 6.902688 -24.649443 21.049982 
1.806725 46.336750 -0.785886 -6.201395 3.229789 -5.017743 0.000000 0.000000 0.000000 7.351352 -4.483071 5.260111 21.990307 3.300772 0.137054 -22.076622 0.409512 3.213018 -13.107318 8.523900 24.994907 -77.810173 10.744192 -14.794312 -90.192108 -9.698793 29.782644 1.684140 -15.916265 -61.956230 1.949779 -9.848325 25.000000 66.063820 -6.069828 79.919533 30.969839 -57.812641 20.038609 11.526657 5.542960 -80.912880 -4.815773 -6.255877 15.217291 57.470665 8.896487 -0.546108 -20.258198 7.311697 17.165861 -18.911272 -8.982341 -0.900656 109.535248 -1.776837 7.774018 4.044761 -19.644274 19.075245 
1.868662 46.108784 -0.863830 -6.660697 5.108216 -3.402152 0.000000 0.000000 0.000000 7.340120 -6.861239 4.760302 23.520487 5.097598 0.274959 -22.924250 0.185467 1.679710 -14.391200 7.555841 24.989206 -70.575539 -1.099274 -16.440874 -92.799812 -6.482101 28.634886 1.019531 -18.429794 -61.866707 0.632159 -8.660186 24.805986 64.810837 -14.332445 81.939278 30.362602 -50.012596 16.501226 15.003972 5.124842 -80.380989 0.440852 -8.998793 14.477107 56.159008 9.112283 -0.452937 -24.662874 8.911824 22.864647 -23.647724 -9.988445 -1.010611 109.772514 -2.294649 7.661323 0.308768 -17.206211 10.365873 
1.864713 46.854904 -0.508769 -9.056406 6.874921 -0.274978 0.000000 0.000000 0.000000 9.072007 -9.516704 4.129148 24.697269 8.583632 0.524898 -22.622334 -2.460933 -0.107742 -19.217358 7.782403 24.992722 -66.362633 -10.128487 -17.258461 -99.039215 1.367967 34.185638 1.848612 -21.098236 -62.279217 -4.150667 -5.965499 24.215807 57.639133 -24.304184 81.420403 43.269814 -45.612766 22.095507 14.222919 7.632066 -80.448936 11.508244 -11.534081 13.361340 48.727238 10.909620 0.316557 -23.526789 4.655603 20.334829 -23.285492 -13.307434 -2.052059 103.463615 0.302911 7.934274 -5.881965 -15.569698 3.643682 
1.329583 47.845814 -0.126707 -7.641844 2.987602 -1.222098 0.000000 0.000000 0.000000 5.652190 -6.412187 4.903563 26.271496 9.169485 0.565089 -21.258289 -2.694897 1.006583 -17.770395 7.954538 24.995255 -61.479282 -16.177732 -18.643940 -104.758713 4.682007 41.061951 7.754099 -24.127798 -65.137894 -5.860344 -6.567285 23.931257 50.986816 -32.394249 79.964279 62.415478 -41.840084 42.497730 9.868779 7.526179 -80.872421 19.257193 -6.425258 14.205809 40.211529 8.177534 0.148142 -21.000402 1.004144 16.908419 -24.686058 -6.776794 -0.014818 90.766342 4.404456 8.115412 -6.189213 -16.440567 13.516163 
1.113464 49.272308 0.570791 -8.870561 2.128656 -0.879388 0.000000 0.000000 0.000000 4.559786 -6.002288 5.037374 28.503822 10.438825 0.635888 -19.238714 -2.880039 1.368895 -17.256557 7.802525 24.989513 -57.877335 -20.720387 -19.712746 -108.645638 6.140055 48.436974 10.961791 -28.230732 -66.992210 -8.733389 -6.497457 23.548429 43.595474 -38.254536 76.148819 76.098763 -32.084213 56.669964 9.309482 8.894039 -80.841858 29.907875 -5.183238 13.271624 30.202959 6.441321 0.337449 -11.886834 -4.425237 9.708076 -17.874083 -4.334381 0.437947 72.456276 6.650679 7.187810 -7.943552 -17.005129 20.349537 
1.112474 50.451469 1.115687 -8.676147 3.290986 -0.244299 0.000000 0.000000 0.000000 2.510889 -7.152380 4.841382 29.922895 10.907462 0.677935 -17.204975 -3.406260 1.936559 -16.708515 7.376960 24.994469 -55.872200 -21.913122 -20.352160 -112.065842 5.150987 52.116085 11.404128 -30.774380 -67.310486 -10.773329 -6.267310 23.323914 39.747581 -41.431408 73.775124 79.352493 -26.523516 53.197178 10.856219 13.782269 -80.629753 34.875938 -6.168472 12.148232 26.220457 6.583998 0.613222 -0.718977 -7.516376 6.535736 -10.805805 -4.831768 0.014308 51.830219 6.280664 5.139746 -10.356284 -13.719779 18.182985 
